# xmcd CD database file
#
# Track frame offsets:
#	150
#	7942
#	21114
#	29456
#	45891
#	52823
#	63534
#	73416
#	89636
#	99869
#	112228
#	123615
#	134991
#	147287
#	159491
#	169900
#	185767
#	203414
#	215203
#
# Disc length: 3054 seconds
#
# Revision: 0
# Processed by: cddbd v1.5.2PL0 Copyright (c) Steve Scherf et al.
# Submitted via: CDex 1.70beta2
#
DISCID=1e0bec13
DTITLE=Karel Vašák a tulák Charlie - Zpívám a to mě stačí
DYEAR=1900
DGENRE=Country
TTITLE0=Zpívám a to mě stačí
TTITLE1=Cizinče stůj
TTITLE2=Až vpluješ do přístavu
TTITLE3=Písnička Sázavy
TTITLE4=Už jsme tady zase
TTITLE5=Starej kovboj
TTITLE6=Řeka nás volá
TTITLE7=Píseň kadjaku
TTITLE8=Ze všech nejkrásnější
TTITLE9=Tulácká romance
TTITLE10=Zpíváme si zpíváme
TTITLE11=Na čundr do Pyšel
TTITLE12=Můj plácek nad řekou
TTITLE13=Letokruhy
TTITLE14=Australská vzpomínka
TTITLE15=Měsíční řeka
TTITLE16=kamarádka
TTITLE17=Na osadě
TTITLE18=Lovec kožešin
EXTD=
EXTT0=
EXTT1=
EXTT2=
EXTT3=
EXTT4=
EXTT5=
EXTT6=
EXTT7=
EXTT8=
EXTT9=
EXTT10=
EXTT11=
EXTT12=
EXTT13=
EXTT14=
EXTT15=
EXTT16=
EXTT17=
EXTT18=
PLAYORDER=
